<svg width="40" height="40" viewBox="0 0 40 40" fill="none" xmlns="http://www.w3.org/2000/svg">
<path d="M36.25 15H32.5C32.5 14.6685 32.3683 14.3505 32.1339 14.1161C31.8995 13.8817 31.5815 13.75 31.25 13.75H21.25C20.9185 13.75 20.6005 13.8817 20.3661 14.1161C20.1317 14.3505 20 14.6685 20 15H10V8.125C10 7.62772 10.1975 7.15081 10.5492 6.79917C10.9008 6.44754 11.3777 6.25 11.875 6.25C12.3723 6.25 12.8492 6.44754 13.2008 6.79917C13.5525 7.15081 13.75 7.62772 13.75 8.125C13.75 8.45652 13.8817 8.77446 14.1161 9.00888C14.3505 9.2433 14.6685 9.375 15 9.375C15.3315 9.375 15.6495 9.2433 15.8839 9.00888C16.1183 8.77446 16.25 8.45652 16.25 8.125C16.25 6.96468 15.7891 5.85188 14.9686 5.03141C14.1481 4.21094 13.0353 3.75 11.875 3.75C10.7147 3.75 9.60188 4.21094 8.78141 5.03141C7.96094 5.85188 7.5 6.96468 7.5 8.125V15H3.75C3.08696 15 2.45107 15.2634 1.98223 15.7322C1.51339 16.2011 1.25 16.837 1.25 17.5V22.5C1.25 24.8206 2.17187 27.0462 3.81282 28.6872C5.45376 30.3281 7.67936 31.25 10 31.25V33.75C10 34.0815 10.1317 34.3995 10.3661 34.6339C10.6005 34.8683 10.9185 35 11.25 35C11.5815 35 11.8995 34.8683 12.1339 34.6339C12.3683 34.3995 12.5 34.0815 12.5 33.75V31.25H27.5V33.75C27.5 34.0815 27.6317 34.3995 27.8661 34.6339C28.1005 34.8683 28.4185 35 28.75 35C29.0815 35 29.3995 34.8683 29.6339 34.6339C29.8683 34.3995 30 34.0815 30 33.75V31.25C32.3206 31.25 34.5462 30.3281 36.1872 28.6872C37.8281 27.0462 38.75 24.8206 38.75 22.5V17.5C38.75 16.837 38.4866 16.2011 38.0178 15.7322C37.5489 15.2634 36.913 15 36.25 15ZM30 16.25V21.25H22.5V16.25H30ZM36.25 22.5C36.25 23.3208 36.0883 24.1335 35.7742 24.8918C35.4602 25.6501 34.9998 26.3391 34.4194 26.9194C33.8391 27.4998 33.1501 27.9602 32.3918 28.2742C31.6335 28.5883 30.8208 28.75 30 28.75H10C8.3424 28.75 6.75269 28.0915 5.58058 26.9194C4.40848 25.7473 3.75 24.1576 3.75 22.5V17.5H20V22.5C20 22.8315 20.1317 23.1495 20.3661 23.3839C20.6005 23.6183 20.9185 23.75 21.25 23.75H31.25C31.5815 23.75 31.8995 23.6183 32.1339 23.3839C32.3683 23.1495 32.5 22.8315 32.5 22.5V17.5H36.25V22.5Z" fill="#333333"/>
</svg>
