<svg width="40" height="41" viewBox="0 0 40 41" fill="none" xmlns="http://www.w3.org/2000/svg">
<path d="M7.5 7.61536C5.44375 7.61536 3.75 9.30911 3.75 11.3654V19.8404C2.9875 20.5304 2.5 21.5179 2.5 22.6154V33.8654H8.75V31.3654H31.25V33.8654H37.5V22.6154C37.5 21.5179 37.0125 20.5304 36.25 19.8404V11.3654C36.25 9.30911 34.5562 7.61536 32.5 7.61536H7.5ZM7.5 10.1154H32.5C33.1938 10.1154 33.75 10.6716 33.75 11.3654V18.8654H31.25V17.6154C31.25 15.5591 29.5562 13.8654 27.5 13.8654H22.5C21.5412 13.8654 20.6662 14.2404 20 14.8404C19.3164 14.2166 18.4254 13.8691 17.5 13.8654H12.5C10.4438 13.8654 8.75 15.5591 8.75 17.6154V18.8654H6.25V11.3654C6.25 10.6716 6.80625 10.1154 7.5 10.1154ZM12.5 16.3654H17.5C18.1938 16.3654 18.75 16.9216 18.75 17.6154V18.8654H11.25V17.6154C11.25 16.9216 11.8062 16.3654 12.5 16.3654ZM22.5 16.3654H27.5C28.1938 16.3654 28.75 16.9216 28.75 17.6154V18.8654H21.25V17.6154C21.25 16.9216 21.8062 16.3654 22.5 16.3654ZM6.25 21.3654H33.75C34.4438 21.3654 35 21.9216 35 22.6154V31.3654H33.75V28.8654H6.25V31.3654H5V22.6154C5 21.9216 5.55625 21.3654 6.25 21.3654Z" fill="#333333"/>
</svg>
