<svg width="24" height="24" viewBox="0 0 24 24" fill="none" xmlns="http://www.w3.org/2000/svg">
<path d="M8.5 10.5L7.9 9.7C7.76374 9.80231 7.65588 9.93774 7.58666 10.0934C7.51744 10.2491 7.48915 10.4199 7.50448 10.5896C7.51981 10.7593 7.57824 10.9223 7.67424 11.0631C7.77024 11.2039 7.90062 11.3178 8.053 11.394L8.5 10.5ZM12.5 12.5L13.49 12.641C13.5195 12.4333 13.4829 12.2217 13.3855 12.0359C13.288 11.8502 13.1346 11.6998 12.947 11.606L12.5 12.5ZM11.01 15.859C10.9909 15.9893 10.9976 16.1221 11.03 16.2497C11.0623 16.3774 11.1195 16.4974 11.1983 16.6029C11.2772 16.7084 11.376 16.7973 11.4893 16.8645C11.6026 16.9316 11.728 16.9758 11.8584 16.9943C11.9888 17.0129 12.1215 17.0055 12.249 16.9727C12.3766 16.9398 12.4963 16.882 12.6015 16.8027C12.7066 16.7235 12.7951 16.6242 12.8617 16.5106C12.9284 16.3971 12.972 16.2715 12.99 16.141L11.01 15.859ZM12.5 7.5L13.207 6.793C13.0368 6.6228 12.8109 6.5197 12.5709 6.50261C12.3308 6.48553 12.0926 6.55561 11.9 6.7L12.5 7.5ZM15 10L14.293 10.707C14.4805 10.8945 14.7348 10.9999 15 11V10ZM17 11C17.2652 11 17.5196 10.8946 17.7071 10.7071C17.8946 10.5196 18 10.2652 18 10C18 9.73478 17.8946 9.48043 17.7071 9.29289C17.5196 9.10536 17.2652 9 17 9V11ZM8 16C8 16.5304 7.78929 17.0391 7.41421 17.4142C7.03914 17.7893 6.53043 18 6 18V20C7.06087 20 8.07828 19.5786 8.82843 18.8284C9.57857 18.0783 10 17.0609 10 16H8ZM6 18C5.46957 18 4.96086 17.7893 4.58579 17.4142C4.21071 17.0391 4 16.5304 4 16H2C2 17.0609 2.42143 18.0783 3.17157 18.8284C3.92172 19.5786 4.93913 20 6 20V18ZM4 16C4 15.4696 4.21071 14.9609 4.58579 14.5858C4.96086 14.2107 5.46957 14 6 14V12C4.93913 12 3.92172 12.4214 3.17157 13.1716C2.42143 13.9217 2 14.9391 2 16H4ZM6 14C6.53043 14 7.03914 14.2107 7.41421 14.5858C7.78929 14.9609 8 15.4696 8 16H10C10 14.9391 9.57857 13.9217 8.82843 13.1716C8.07828 12.4214 7.06087 12 6 12V14ZM8.053 11.394L12.053 13.394L12.947 11.606L8.947 9.606L8.053 11.394ZM11.51 12.359L11.01 15.859L12.99 16.141L13.49 12.641L11.51 12.359ZM9.1 11.3L13.1 8.3L11.9 6.7L7.9 9.7L9.1 11.3ZM11.793 8.207L14.293 10.707L15.707 9.293L13.207 6.793L11.793 8.207ZM15 11H17V9H15V11ZM20 16C20 16.5304 19.7893 17.0391 19.4142 17.4142C19.0391 17.7893 18.5304 18 18 18V20C19.0609 20 20.0783 19.5786 20.8284 18.8284C21.5786 18.0783 22 17.0609 22 16H20ZM18 18C17.4696 18 16.9609 17.7893 16.5858 17.4142C16.2107 17.0391 16 16.5304 16 16H14C14 17.0609 14.4214 18.0783 15.1716 18.8284C15.9217 19.5786 16.9391 20 18 20V18ZM16 16C16 15.4696 16.2107 14.9609 16.5858 14.5858C16.9609 14.2107 17.4696 14 18 14V12C16.9391 12 15.9217 12.4214 15.1716 13.1716C14.4214 13.9217 14 14.9391 14 16H16ZM18 14C18.5304 14 19.0391 14.2107 19.4142 14.5858C19.7893 14.9609 20 15.4696 20 16H22C22 14.9391 21.5786 13.9217 20.8284 13.1716C20.0783 12.4214 19.0609 12 18 12V14ZM15 5V7C15.5304 7 16.0391 6.78929 16.4142 6.41421C16.7893 6.03914 17 5.53043 17 5H15ZM15 5H13C13 5.53043 13.2107 6.03914 13.5858 6.41421C13.9609 6.78929 14.4696 7 15 7V5ZM15 5V3C14.4696 3 13.9609 3.21071 13.5858 3.58579C13.2107 3.96086 13 4.46957 13 5H15ZM15 5H17C17 4.46957 16.7893 3.96086 16.4142 3.58579C16.0391 3.21071 15.5304 3 15 3V5Z" fill="black"/>
</svg>
