<svg width="40" height="40" viewBox="0 0 40 40" fill="none" xmlns="http://www.w3.org/2000/svg">
<path d="M8.33325 20V33.3333H16.7166C15.6333 31.6667 14.9999 29.65 14.9999 27.5C14.9999 21.5333 19.8666 16.6667 25.8333 16.6667C28.8999 16.6667 31.6666 17.95 33.6333 20H36.6666L19.9999 5L3.33325 20H8.33325Z" fill="white"/>
<path d="M24.9128 25.0183C25.6057 25.0183 26.1651 25.5516 26.1651 26.2122C26.1651 26.8729 25.6057 27.4061 24.9128 27.4061C24.2199 27.4061 23.6605 26.8729 23.6605 26.2122C23.6605 25.5516 24.2199 25.0183 24.9128 25.0183ZM29.0872 30.5899C29.7801 30.5899 30.3395 31.1231 30.3395 31.7838C30.3395 32.4444 29.7801 32.9777 29.0872 32.9777C28.3942 32.9777 27.8349 32.4444 27.8349 31.7838C27.8349 31.1231 28.3942 30.5899 29.0872 30.5899ZM24.0028 32.9777L22.8256 31.8554L29.9972 25.0183L31.1744 26.1406L24.0028 32.9777ZM32.5519 21.7152L33.0612 24.7875L35.9916 26.2122L34.5139 28.998L36 31.7838L33.0445 33.2085L32.5352 36.2808L29.2876 35.7953L26.975 38L24.654 35.7634L21.4314 36.2728L20.9137 33.1767L18 31.7599L19.4861 28.9741L18.0083 26.2122L20.9388 24.7716L21.4481 21.7312L24.679 22.2326L27 20L29.3043 22.2008L32.5519 21.7152ZM33.7625 26.9047L31.5918 25.8143L31.1744 23.514L28.7532 23.8483L27 22.2326L25.2468 23.8483L22.8256 23.514L22.4082 25.8143L20.2375 26.9047L21.3228 28.998L20.2375 31.0913L22.4082 32.1817L22.8256 34.482L25.2468 34.1477L27 35.7634L28.7532 34.1477L31.1744 34.482L31.5918 32.1817L33.7625 31.0913L32.6772 28.998L33.7625 26.9047V26.9047Z" fill="white"/>
</svg>
