<svg viewBox="0 0 30 30" xmlns="http://www.w3.org/2000/svg">
<path d="M13.9725 24.4613C14.0872 24.6278 14.2406 24.764 14.4196 24.8581C14.5986 24.9521 14.7978 25.0013 15 25.0013C15.2022 25.0013 15.4014 24.9521 15.5804 24.8581C15.7594 24.764 15.9128 24.6278 16.0275 24.4613L27.2775 8.21125C27.4077 8.02382 27.4841 7.80429 27.4983 7.57651C27.5125 7.34873 27.464 7.1214 27.3581 6.91924C27.2522 6.71708 27.0929 6.54781 26.8976 6.42982C26.7022 6.31184 26.4782 6.24964 26.25 6.25H3.75001C3.52232 6.25094 3.29919 6.31393 3.10461 6.43221C2.91004 6.55048 2.75139 6.71955 2.64572 6.92124C2.54006 7.12294 2.49137 7.34962 2.5049 7.57692C2.51843 7.80421 2.59366 8.02352 2.72251 8.21125L13.9725 24.4613Z" />
</svg>
