<svg width="40" height="40" viewBox="0 0 40 40" fill="none" xmlns="http://www.w3.org/2000/svg">
<path d="M8.33325 20V33.3333H16.7166C15.6333 31.6667 14.9999 29.65 14.9999 27.5C14.9999 21.5333 19.8666 16.6667 25.8333 16.6667C28.8999 16.6667 31.6666 17.95 33.6333 20H36.6666L19.9999 5L3.33325 20H8.33325Z" fill="white"/>
<path d="M27 20C22.0299 20 18 24.0299 18 29C18 33.9701 22.0299 38 27 38C31.9701 38 36 33.9701 36 29C36 24.0299 31.9701 20 27 20ZM27 36.4732C22.8737 36.4732 19.5268 33.1263 19.5268 29C19.5268 24.8737 22.8737 21.5268 27 21.5268C31.1263 21.5268 34.4732 24.8737 34.4732 29C34.4732 33.1263 31.1263 36.4732 27 36.4732ZM27.9583 28.5339L27.448 28.4154V25.7174C28.2114 25.8219 28.6835 26.3 28.7638 26.8866C28.7739 26.967 28.8422 27.0252 28.9225 27.0252H29.8246C29.919 27.0252 29.9933 26.9429 29.9853 26.8484C29.8627 25.5969 28.8321 24.7933 27.456 24.6547V23.9978C27.456 23.9094 27.3837 23.8371 27.2953 23.8371H26.7308C26.6424 23.8371 26.5701 23.9094 26.5701 23.9978V24.6607C25.1478 24.7993 24.0348 25.5848 24.0348 27.0513C24.0348 28.4094 25.0353 29.0643 26.0859 29.3154L26.5821 29.442V32.3087C25.6942 32.1902 25.196 31.7161 25.0935 31.0772C25.0815 31.0009 25.0132 30.9446 24.9348 30.9446H24.0067C23.9123 30.9446 23.8379 31.025 23.846 31.1194C23.9364 32.2243 24.7741 33.2408 26.5621 33.3714V34.0022C26.5621 34.0906 26.6344 34.1629 26.7228 34.1629H27.2933C27.3817 34.1629 27.454 34.0906 27.454 34.0002L27.45 33.3634C29.023 33.2248 30.148 32.383 30.148 30.8723C30.146 29.4781 29.26 28.8554 27.9583 28.5339V28.5339ZM26.5801 28.2085C26.4676 28.1763 26.3732 28.1462 26.2788 28.108C25.5998 27.8629 25.2844 27.4672 25.2844 26.9569C25.2844 26.2277 25.8368 25.8118 26.5801 25.7174V28.2085ZM27.448 32.3147V29.6288C27.5103 29.6469 27.5665 29.6609 27.6248 29.673C28.575 29.9623 28.8944 30.3641 28.8944 30.9808C28.8944 31.7663 28.3038 32.2384 27.448 32.3147Z" fill="white"/>
</svg>
