<svg width="40" height="40" viewBox="0 0 40 40" fill="none" xmlns="http://www.w3.org/2000/svg">
<path d="M33.3333 31.6667V17.5C33.3333 17.2413 33.2731 16.9861 33.1573 16.7547C33.0416 16.5233 32.8736 16.322 32.6666 16.1667L21 7.41671C20.7115 7.20034 20.3606 7.08337 20 7.08337C19.6393 7.08337 19.2885 7.20034 19 7.41671L7.33329 16.1667C7.1263 16.322 6.95829 16.5233 6.84258 16.7547C6.72687 16.9861 6.66663 17.2413 6.66663 17.5V31.6667C6.66663 32.1087 6.84222 32.5327 7.15478 32.8452C7.46734 33.1578 7.89127 33.3334 8.33329 33.3334H31.6666C32.1087 33.3334 32.5326 33.1578 32.8451 32.8452C33.1577 32.5327 33.3333 32.1087 33.3333 31.6667Z" stroke="black" stroke-width="2" stroke-linecap="round" stroke-linejoin="round"/>
</svg>
