<svg width="56" height="56" viewBox="0 0 56 56" fill="none" xmlns="http://www.w3.org/2000/svg">
<path d="M40.46 12.74C39.9062 12.74 39.3649 12.9042 38.9044 13.2119C38.444 13.5196 38.0851 13.9569 37.8732 14.4685C37.6612 14.9801 37.6058 15.5431 37.7138 16.0863C37.8219 16.6294 38.0885 17.1283 38.4801 17.5199C38.8717 17.9115 39.3706 18.1782 39.9138 18.2862C40.4569 18.3943 41.0199 18.3388 41.5315 18.1269C42.0432 17.915 42.4805 17.5561 42.7881 17.0956C43.0958 16.6352 43.26 16.0938 43.26 15.54C43.26 14.7974 42.965 14.0852 42.4399 13.5601C41.9148 13.035 41.2026 12.74 40.46 12.74V12.74ZM51.1934 18.3867C51.148 16.4507 50.7854 14.5353 50.12 12.7167C49.5267 11.1607 48.6033 9.75167 47.4134 8.58669C46.2579 7.39068 44.8457 6.4731 43.2834 5.90335C41.4696 5.21773 39.552 4.84684 37.6134 4.80669C35.14 4.66669 34.3467 4.66669 28 4.66669C21.6534 4.66669 20.86 4.66669 18.3867 4.80669C16.448 4.84684 14.5305 5.21773 12.7167 5.90335C11.1573 6.47887 9.7462 7.39566 8.58669 8.58669C7.39068 9.7421 6.4731 11.1544 5.90335 12.7167C5.21773 14.5305 4.84684 16.448 4.80669 18.3867C4.66669 20.86 4.66669 21.6534 4.66669 28C4.66669 34.3467 4.66669 35.14 4.80669 37.6134C4.84684 39.552 5.21773 41.4696 5.90335 43.2834C6.4731 44.8457 7.39068 46.2579 8.58669 47.4134C9.7462 48.6044 11.1573 49.5212 12.7167 50.0967C14.5305 50.7823 16.448 51.1532 18.3867 51.1934C20.86 51.3334 21.6534 51.3334 28 51.3334C34.3467 51.3334 35.14 51.3334 37.6134 51.1934C39.552 51.1532 41.4696 50.7823 43.2834 50.0967C44.8457 49.5269 46.2579 48.6094 47.4134 47.4134C48.6086 46.2527 49.5328 44.8425 50.12 43.2834C50.7854 41.4647 51.148 39.5493 51.1934 37.6134C51.1934 35.14 51.3334 34.3467 51.3334 28C51.3334 21.6534 51.3334 20.86 51.1934 18.3867V18.3867ZM46.9934 37.3334C46.9764 38.8145 46.7081 40.282 46.2 41.6734C45.8275 42.6888 45.2291 43.6063 44.45 44.3567C43.6932 45.1279 42.7776 45.725 41.7667 46.1067C40.3753 46.6148 38.9078 46.883 37.4267 46.9C35.0934 47.0167 34.23 47.04 28.0934 47.04C21.9567 47.04 21.0934 47.04 18.76 46.9C17.2221 46.9288 15.6907 46.692 14.2334 46.2C13.2668 45.7989 12.3932 45.2032 11.6667 44.45C10.8922 43.7004 10.3013 42.7821 9.94002 41.7667C9.37035 40.3554 9.05439 38.8546 9.00669 37.3334C9.00669 35 8.86669 34.1367 8.86669 28C8.86669 21.8634 8.86669 21 9.00669 18.6667C9.01715 17.1525 9.29357 15.6519 9.82335 14.2334C10.2341 13.2485 10.8646 12.3706 11.6667 11.6667C12.3756 10.8644 13.2517 10.2272 14.2334 9.80002C15.6556 9.28679 17.1547 9.01854 18.6667 9.00669C21 9.00669 21.8634 8.86669 28 8.86669C34.1367 8.86669 35 8.86669 37.3334 9.00669C38.8145 9.02368 40.282 9.29193 41.6734 9.80002C42.7337 10.1935 43.6854 10.8333 44.45 11.6667C45.2147 12.3834 45.8121 13.2597 46.2 14.2334C46.7186 15.6542 46.987 17.1542 46.9934 18.6667C47.11 21 47.1334 21.8634 47.1334 28C47.1334 34.1367 47.11 35 46.9934 37.3334ZM28 16.03C25.6336 16.0346 23.3216 16.7406 21.3562 18.0587C19.3908 19.3767 17.8602 21.2478 16.9578 23.4354C16.0554 25.6231 15.8217 28.0291 16.2862 30.3495C16.7507 32.6699 17.8926 34.8006 19.5675 36.4723C21.2425 38.144 23.3754 39.2817 25.6967 39.7417C28.018 40.2017 30.4236 39.9633 32.6094 39.0566C34.7953 38.1499 36.6634 36.6157 37.9777 34.6478C39.2919 32.6798 39.9934 30.3665 39.9934 28C39.9964 26.4253 39.6882 24.8654 39.0862 23.4103C38.4843 21.9551 37.6007 20.6332 36.4861 19.5208C35.3714 18.4084 34.0479 17.5273 32.5915 16.9282C31.1352 16.3291 29.5748 16.0239 28 16.03V16.03ZM28 35.77C26.4633 35.77 24.961 35.3143 23.6832 34.4605C22.4055 33.6068 21.4096 32.3933 20.8215 30.9735C20.2334 29.5537 20.0795 27.9914 20.3793 26.4842C20.6791 24.9769 21.4191 23.5925 22.5058 22.5058C23.5925 21.4191 24.9769 20.6791 26.4842 20.3793C27.9914 20.0795 29.5537 20.2334 30.9735 20.8215C32.3933 21.4096 33.6068 22.4055 34.4605 23.6832C35.3143 24.961 35.77 26.4633 35.77 28C35.77 29.0204 35.569 30.0308 35.1786 30.9735C34.7881 31.9162 34.2158 32.7727 33.4942 33.4942C32.7727 34.2158 31.9162 34.7881 30.9735 35.1786C30.0308 35.569 29.0204 35.77 28 35.77V35.77Z" fill="white"/>
</svg>
