<svg width="56" height="56" viewBox="0 0 56 56" fill="none" xmlns="http://www.w3.org/2000/svg">
<path d="M46.3586 6.125H9.64141C7.7 6.125 6.125 7.7 6.125 9.64141V46.3586C6.125 48.3 7.7 49.875 9.64141 49.875H46.3586C48.3 49.875 49.875 48.3 49.875 46.3586V9.64141C49.875 7.7 48.3 6.125 46.3586 6.125V6.125ZM46.3586 46.375C21.8695 46.3695 9.625 46.3641 9.625 46.3586C9.63047 21.8695 9.63594 9.625 9.64141 9.625C34.1305 9.63047 46.375 9.63594 46.375 9.64141C46.3695 34.1305 46.3641 46.375 46.3586 46.375ZM12.6109 22.5258H19.1023V43.4055H12.6109V22.5258ZM15.8594 19.6711C17.932 19.6711 19.6219 17.9867 19.6219 15.9086C19.6219 15.4145 19.5246 14.9252 19.3355 14.4687C19.1464 14.0123 18.8692 13.5975 18.5199 13.2481C18.1705 12.8987 17.7557 12.6216 17.2992 12.4325C16.8427 12.2434 16.3535 12.1461 15.8594 12.1461C15.3653 12.1461 14.876 12.2434 14.4195 12.4325C13.963 12.6216 13.5483 12.8987 13.1989 13.2481C12.8495 13.5975 12.5724 14.0123 12.3833 14.4687C12.1942 14.9252 12.0969 15.4145 12.0969 15.9086C12.0914 17.9867 13.7758 19.6711 15.8594 19.6711ZM29.657 33.075C29.657 30.3516 30.1766 27.7156 33.5508 27.7156C36.8758 27.7156 36.925 30.8273 36.925 33.25V43.4055H43.4109V31.9539C43.4109 26.332 42.1969 22.0062 35.6289 22.0062C32.4734 22.0062 30.357 23.7398 29.4875 25.3805H29.4V22.5258H23.1711V43.4055H29.657V33.075Z" fill="white"/>
</svg>
