<svg width="48" height="48" viewBox="0 0 48 48" fill="none" xmlns="http://www.w3.org/2000/svg">
<path fill-rule="evenodd" clip-rule="evenodd" d="M44.3999 24.3019C44.3999 24.6998 44.2419 25.0813 43.9606 25.3626C43.6793 25.6439 43.2977 25.8019 42.8999 25.8019L7.5209 25.8019L16.9619 35.2399C17.2436 35.5216 17.4018 35.9036 17.4018 36.3019C17.4018 36.7003 17.2436 37.0823 16.9619 37.3639C16.6802 37.6456 16.2982 37.8038 15.8999 37.8038C15.5016 37.8038 15.1196 37.6456 14.8379 37.3639L2.8379 25.3639C2.69821 25.2246 2.58738 25.0591 2.51176 24.8768C2.43614 24.6946 2.39722 24.4992 2.39722 24.3019C2.39722 24.1046 2.43614 23.9093 2.51176 23.727C2.58738 23.5448 2.69821 23.3793 2.8379 23.2399L14.8379 11.2399C15.1196 10.9583 15.5016 10.8 15.8999 10.8C16.2982 10.8 16.6802 10.9583 16.9619 11.2399C17.2436 11.5216 17.4018 11.9036 17.4018 12.3019C17.4018 12.7003 17.2436 13.0823 16.9619 13.3639L7.5209 22.8019L42.8999 22.8019C43.2977 22.8019 43.6793 22.96 43.9606 23.2413C44.2419 23.5226 44.3999 23.9041 44.3999 24.3019V24.3019Z" fill="black"/>
</svg>
