<svg width="48" height="48" viewBox="0 0 48 48" fill="none" xmlns="http://www.w3.org/2000/svg">
<path fill-rule="evenodd" clip-rule="evenodd" d="M3.6001 23.6981C3.6001 23.3002 3.75813 22.9187 4.03944 22.6374C4.32074 22.3561 4.70227 22.1981 5.1001 22.1981L40.4791 22.1981L31.0381 12.7601C30.7564 12.4784 30.5982 12.0964 30.5982 11.6981C30.5982 11.2997 30.7564 10.9177 31.0381 10.6361C31.3198 10.3544 31.7018 10.1962 32.1001 10.1962C32.4984 10.1962 32.8804 10.3544 33.1621 10.6361L45.1621 22.6361C45.3018 22.7754 45.4126 22.9409 45.4882 23.1232C45.5639 23.3054 45.6028 23.5008 45.6028 23.6981C45.6028 23.8954 45.5639 24.0907 45.4882 24.273C45.4126 24.4552 45.3018 24.6207 45.1621 24.7601L33.1621 36.7601C32.8804 37.0417 32.4984 37.1999 32.1001 37.1999C31.7018 37.1999 31.3198 37.0417 31.0381 36.7601C30.7564 36.4784 30.5982 36.0964 30.5982 35.6981C30.5982 35.2997 30.7564 34.9177 31.0381 34.6361L40.4791 25.1981L5.1001 25.1981C4.70227 25.1981 4.32074 25.04 4.03944 24.7587C3.75813 24.4774 3.6001 24.0959 3.6001 23.6981V23.6981Z" fill="black"/>
</svg>
