<svg width="40" height="40" viewBox="0 0 40 40" fill="none" xmlns="http://www.w3.org/2000/svg">
<path d="M32.1833 31.5C32.9166 30.35 33.3333 28.9667 33.3333 27.5C33.3333 23.3333 29.9999 20 25.8333 20C21.6666 20 18.3333 23.3333 18.3333 27.5C18.3333 31.6667 21.6666 35 25.8333 35C27.2833 35 28.6499 34.5833 29.7999 33.8667L34.9999 38.9833L37.3166 36.6667L32.1833 31.5V31.5ZM25.8333 31.6667C24.7282 31.6667 23.6684 31.2277 22.887 30.4463C22.1056 29.6649 21.6666 28.6051 21.6666 27.5C21.6666 26.3949 22.1056 25.3351 22.887 24.5537C23.6684 23.7723 24.7282 23.3333 25.8333 23.3333C26.9383 23.3333 27.9981 23.7723 28.7795 24.5537C29.5609 25.3351 29.9999 26.3949 29.9999 27.5C29.9999 28.6051 29.5609 29.6649 28.7795 30.4463C27.9981 31.2277 26.9383 31.6667 25.8333 31.6667V31.6667ZM8.33325 33.3333V20H3.33325L19.9999 5L36.6666 20H33.6333C31.6666 17.95 28.8999 16.6667 25.8333 16.6667C19.8666 16.6667 14.9999 21.5333 14.9999 27.5C14.9999 29.65 15.6333 31.6667 16.7166 33.3333H8.33325Z" fill="white"/>
</svg>
