<svg width="40" height="40" viewBox="0 0 40 40" fill="none" xmlns="http://www.w3.org/2000/svg">
<path d="M16.6667 30C19.625 29.9994 22.498 29.0091 24.8283 27.1867L32.155 34.5134L34.5117 32.1567L27.185 24.83C29.0083 22.4995 29.9993 19.6258 30 16.6667C30 9.31504 24.0183 3.33337 16.6667 3.33337C9.31499 3.33337 3.33333 9.31504 3.33333 16.6667C3.33333 24.0184 9.31499 30 16.6667 30ZM16.6667 6.66671C22.1817 6.66671 26.6667 11.1517 26.6667 16.6667C26.6667 22.1817 22.1817 26.6667 16.6667 26.6667C11.1517 26.6667 6.66666 22.1817 6.66666 16.6667C6.66666 11.1517 11.1517 6.66671 16.6667 6.66671Z" fill="white"/>
</svg>
