<svg width="24" height="24" viewBox="0 0 24 24" fill="none" xmlns="http://www.w3.org/2000/svg">
<path d="M2 6.25C2 5.38805 2.34241 4.5614 2.9519 3.9519C3.5614 3.34241 4.38805 3 5.25 3H13.75C14.612 3 15.4386 3.34241 16.0481 3.9519C16.6576 4.5614 17 5.38805 17 6.25V12.75C17 13.612 16.6576 14.4386 16.0481 15.0481C15.4386 15.6576 14.612 16 13.75 16H5.25C4.38805 16 3.5614 15.6576 2.9519 15.0481C2.34241 14.4386 2 13.612 2 12.75V6.25ZM21.62 3.597C21.7355 3.66248 21.8315 3.75743 21.8982 3.87216C21.965 3.98688 22.0001 4.11727 22 4.25V14.75C22 14.8827 21.9648 15.0131 21.8979 15.1277C21.831 15.2424 21.735 15.3373 21.6194 15.4027C21.5039 15.468 21.3731 15.5016 21.2404 15.4999C21.1077 15.4982 20.9778 15.4613 20.864 15.393L18 13.675V5.325L20.864 3.607C20.9777 3.53872 21.1075 3.50182 21.2402 3.50006C21.3728 3.4983 21.5035 3.53175 21.619 3.597H21.62ZM8.135 17C7.97521 17.5076 7.65767 17.951 7.22857 18.2657C6.79946 18.5804 6.28115 18.7501 5.749 18.75H3.749C3.55009 18.75 3.35932 18.829 3.21867 18.9697C3.07802 19.1103 2.999 19.3011 2.999 19.5V21.1C2.999 21.3387 3.09382 21.5676 3.2626 21.7364C3.43139 21.9052 3.66031 22 3.899 22H5.843C7.27525 22 8.66269 21.5007 9.76656 20.5881C10.8704 19.6755 11.6217 18.4067 11.891 17H8.136H8.135Z" fill="black"/>
</svg>
