<svg width="24" height="24" viewBox="0 0 24 24" fill="none" xmlns="http://www.w3.org/2000/svg">
<path d="M20 5.98457H8.22C7.95731 5.69232 7.63924 5.45511 7.28422 5.28668C6.9292 5.11824 6.54428 5.02193 6.15176 5.00333C5.75925 4.98473 5.36695 5.0442 4.99759 5.1783C4.62823 5.31241 4.28915 5.51847 4 5.78457C3.36 6.34457 3 7.14457 3 7.98457V16.9846C2.73478 16.9846 2.48043 17.0899 2.29289 17.2775C2.10536 17.465 2 17.7193 2 17.9846V18.9846H10V17.9846C10 17.7193 9.89464 17.465 9.70711 17.2775C9.51957 17.0899 9.26522 16.9846 9 16.9846V9.98457H20C20.5304 9.98457 21.0391 9.77385 21.4142 9.39878C21.7893 9.02371 22 8.515 22 7.98457C22 7.45413 21.7893 6.94543 21.4142 6.57035C21.0391 6.19528 20.5304 5.98457 20 5.98457ZM6 9.48457C5.60218 9.48457 5.22064 9.32653 4.93934 9.04523C4.65804 8.76392 4.5 8.38239 4.5 7.98457C4.5 7.58674 4.65804 7.20521 4.93934 6.92391C5.22064 6.6426 5.60218 6.48457 6 6.48457C6.39782 6.48457 6.77936 6.6426 7.06066 6.92391C7.34196 7.20521 7.5 7.58674 7.5 7.98457C7.5 8.38239 7.34196 8.76392 7.06066 9.04523C6.77936 9.32653 6.39782 9.48457 6 9.48457ZM10.5 8.98457L9 6.98457H10.5L12 8.98457H10.5ZM14.5 8.98457L13 6.98457H14.5L16 8.98457H14.5ZM18.5 8.98457L17 6.98457H18.5L20 8.98457H18.5Z" fill="black"/>
</svg>
