<svg width="24" height="24" viewBox="0 0 24 24" fill="none" xmlns="http://www.w3.org/2000/svg">
<path d="M20.0897 4.97003C20.5145 5.4782 20.8761 6.03592 21.1667 6.63103C20.7896 7.22304 20.2004 7.64849 19.5198 7.82027C18.8392 7.99205 18.1187 7.89716 17.5057 7.55503L20.0897 4.97003ZM19.0297 3.91003L16.4447 6.49503C16.1026 5.88211 16.0077 5.16159 16.1795 4.48098C16.3513 3.80038 16.7767 3.21119 17.3687 2.83403C17.9638 3.12438 18.5215 3.48567 19.0297 3.91003ZM20.5237 14.962C21.1953 13.9959 21.6526 12.8975 21.8651 11.7402C22.0776 10.583 22.0403 9.39369 21.7557 8.25203C21.0454 8.91851 20.1277 9.32089 19.1563 9.39188C18.1848 9.46287 17.2184 9.19816 16.4187 8.64203L15.3097 9.75003L20.5227 14.962H20.5237ZM15.3577 7.58203C14.8013 6.78225 14.5365 5.81566 14.6075 4.84397C14.6785 3.87228 15.081 2.95445 15.7477 2.24403C14.606 1.9596 13.4167 1.92246 12.2594 2.13512C11.1022 2.34777 10.0037 2.80529 9.03773 3.47703L14.2507 8.68903L15.3577 7.58203ZM13.1897 9.75003L7.88673 4.44703C6.98438 5.35577 6.30702 6.46291 5.90873 7.68003C7.82073 7.97503 10.3537 8.70303 12.4387 10.5L13.1897 9.74903V9.75003ZM11.7287 11.211C12.1103 11.5349 12.4648 11.8894 12.7887 12.271C14.4187 14.191 15.0807 16.547 15.3457 18.345C15.4057 18.757 15.4457 19.14 15.4717 19.481C15.5018 19.8156 15.458 20.1526 15.3435 20.4683C15.229 20.7841 15.0465 21.0708 14.809 21.3083C14.5715 21.5458 14.2848 21.7283 13.969 21.8428C13.6533 21.9573 13.3163 22.0011 12.9817 21.971C11.0037 21.821 7.64173 21.203 5.21973 18.781C2.79773 16.358 2.17873 12.997 2.02873 11.018C1.99868 10.6835 2.04246 10.3465 2.15697 10.0307C2.27149 9.71498 2.45393 9.42823 2.69143 9.19073C2.92892 8.95324 3.21567 8.77079 3.53142 8.65628C3.84716 8.54177 4.1842 8.49799 4.51873 8.52803C4.86073 8.55403 5.24273 8.59403 5.65473 8.65503C7.45273 8.92003 9.80873 9.58203 11.7287 11.211ZM8.02973 13.469C7.88821 13.3325 7.69872 13.257 7.50208 13.2588C7.30543 13.2606 7.11736 13.3395 6.97836 13.4787C6.83937 13.6178 6.76059 13.8059 6.75897 14.0026C6.75735 14.1992 6.83304 14.3886 6.96973 14.53L9.46973 17.03C9.53839 17.1037 9.62119 17.1628 9.71319 17.2038C9.80519 17.2448 9.9045 17.2668 10.0052 17.2686C10.1059 17.2704 10.2059 17.2519 10.2993 17.2142C10.3927 17.1764 10.4775 17.1203 10.5488 17.0491C10.62 16.9779 10.6761 16.893 10.7139 16.7996C10.7516 16.7062 10.7701 16.6062 10.7683 16.5055C10.7665 16.4048 10.7445 16.3055 10.7035 16.2135C10.6625 16.1215 10.6034 16.0387 10.5297 15.97L8.02973 13.47V13.469ZM16.3177 18.092C16.0237 16.179 15.2957 13.647 13.4977 11.562L14.2497 10.81L19.5527 16.114C18.6434 17.0166 17.5356 17.694 16.3177 18.092Z" fill="black"/>
</svg>
