<svg width="56" height="56" viewBox="0 0 56 56" fill="none" xmlns="http://www.w3.org/2000/svg">
<path d="M19.8567 46.6667H19.67C15.9095 46.6338 12.2034 45.765 8.82003 44.1234C8.19767 43.831 7.68523 43.3471 7.35774 42.7425C7.03024 42.1379 6.90489 41.4443 7.00003 40.7634C7.1035 40.0778 7.42093 39.4424 7.90701 38.9479C8.39309 38.4534 9.02296 38.1252 9.7067 38.01C11.8035 37.7303 13.8206 37.0235 15.6334 35.9334C12.4861 33.4727 10.0631 30.2064 8.62127 26.4806C7.17943 22.7548 6.77242 18.7083 7.44336 14.77C7.53434 14.1462 7.80261 13.5617 8.21627 13.086C8.62994 12.6103 9.17156 12.2634 9.7767 12.0867C10.3654 11.9018 10.9955 11.8939 11.5887 12.064C12.1819 12.234 12.712 12.5746 13.1134 13.0434C14.476 14.8302 16.1884 16.3207 18.1461 17.4239C20.1038 18.5271 22.2658 19.2199 24.5 19.46C24.6068 16.711 25.7881 14.1137 27.79 12.2267C28.7896 11.2695 29.9697 10.5208 31.2616 10.0243C32.5534 9.52774 33.9312 9.29327 35.3146 9.33453C36.6979 9.37579 38.0593 9.69196 39.3192 10.2646C40.5792 10.8373 41.7126 11.655 42.6534 12.67C42.8985 12.8867 43.203 13.0248 43.5275 13.0664C43.852 13.108 44.1815 13.0512 44.4734 12.9034C45.0297 12.641 45.6492 12.5422 46.2595 12.6186C46.8699 12.6949 47.446 12.9433 47.9205 13.3347C48.395 13.726 48.7485 14.2443 48.9396 14.829C49.1308 15.4136 49.1517 16.0406 49 16.6367C48.4618 18.8536 47.4422 20.9249 46.0134 22.7034C45.6984 29.3411 42.772 35.5852 37.8722 40.0741C32.9724 44.5631 26.4966 46.9328 19.8567 46.6667V46.6667ZM19.8567 42H20.0434C22.7563 42.0933 25.4607 41.6472 27.9999 40.6875C30.539 39.7277 32.8624 38.2735 34.8354 36.4091C36.8083 34.5447 38.3915 32.3072 39.4932 29.8263C40.5949 27.3454 41.1932 24.6705 41.2534 21.9567C41.2919 21.2129 41.5986 20.5084 42.1167 19.9734C42.6858 19.2529 43.1711 18.4701 43.5634 17.64C42.7228 17.6416 41.8913 17.4658 41.1233 17.124C40.3554 16.7823 39.6682 16.2823 39.1067 15.6567C38.5668 15.1213 37.9254 14.699 37.2203 14.4146C36.5151 14.1301 35.7603 13.9892 35 14C34.2321 13.9802 33.4679 14.1122 32.7511 14.3885C32.0344 14.6648 31.3793 15.0799 30.8234 15.61C30.0734 16.3217 29.5235 17.2178 29.2286 18.2088C28.9338 19.1998 28.9044 20.2508 29.1434 21.2567L29.75 23.9167L27.02 24.1034C24.2226 24.3315 21.409 23.9488 18.7741 22.9819C16.1391 22.0149 13.7459 20.4868 11.76 18.5034C11.6749 21.575 12.4432 24.61 13.9797 27.271C15.5162 29.9321 17.7606 32.1149 20.4634 33.5767L22.68 34.8367L21.21 36.9367C19.6203 39.0216 17.4421 40.5821 14.9567 41.4167C16.5511 41.8163 18.1897 42.0123 19.8334 42H19.8567Z" fill="white"/>
</svg>
