<svg width="56" height="56" viewBox="0 0 56 56" fill="none" xmlns="http://www.w3.org/2000/svg">
<path d="M52.5 27.8469C52.5 27.7266 52.5 27.5899 52.4945 27.4313C52.4891 26.9883 52.4781 26.4907 52.4672 25.9602C52.4234 24.4344 52.3469 22.9141 52.2266 21.4813C52.0625 19.5071 51.8219 17.861 51.4937 16.625C51.1475 15.3352 50.4688 14.1589 49.5254 13.2136C48.582 12.2683 47.4071 11.5872 46.118 11.2383C44.5703 10.8227 41.5406 10.5656 37.275 10.4071C35.2461 10.3305 33.075 10.2813 30.9039 10.2539C30.1437 10.243 29.4383 10.2375 28.8039 10.2321H27.1961C26.5617 10.2375 25.8562 10.243 25.0961 10.2539C22.925 10.2813 20.7539 10.3305 18.725 10.4071C14.4594 10.5711 11.4242 10.8281 9.88203 11.2383C8.59251 11.5863 7.4171 12.2672 6.4736 13.2126C5.5301 14.158 4.85166 15.3348 4.50625 16.625C4.17266 17.861 3.9375 19.5071 3.77344 21.4813C3.65312 22.9141 3.57656 24.4344 3.53281 25.9602C3.51641 26.4907 3.51094 26.9883 3.50547 27.4313C3.50547 27.5899 3.5 27.7266 3.5 27.8469V28.1531C3.5 28.2735 3.5 28.4102 3.50547 28.5688C3.51094 29.0117 3.52187 29.5094 3.53281 30.0399C3.57656 31.5656 3.65312 33.086 3.77344 34.5188C3.9375 36.493 4.17813 38.1391 4.50625 39.375C5.20625 41.9946 7.2625 44.0617 9.88203 44.7617C11.4242 45.1774 14.4594 45.4344 18.725 45.593C20.7539 45.6696 22.925 45.7188 25.0961 45.7461C25.8562 45.7571 26.5617 45.7625 27.1961 45.768H28.8039C29.4383 45.7625 30.1437 45.7571 30.9039 45.7461C33.075 45.7188 35.2461 45.6696 37.275 45.593C41.5406 45.4289 44.5758 45.1719 46.118 44.7617C48.7375 44.0617 50.7937 42 51.4937 39.375C51.8273 38.1391 52.0625 36.493 52.2266 34.5188C52.3469 33.086 52.4234 31.5656 52.4672 30.0399C52.4836 29.5094 52.4891 29.0117 52.4945 28.5688C52.4945 28.4102 52.5 28.2735 52.5 28.1531V27.8469V27.8469ZM48.5625 28.1313C48.5625 28.2461 48.5625 28.3719 48.557 28.5196C48.5516 28.9461 48.5406 29.4164 48.5297 29.925C48.4914 31.3797 48.4148 32.8344 48.3 34.1852C48.1523 35.9461 47.9445 37.3899 47.6875 38.3578C47.3484 39.6211 46.3531 40.6219 45.0953 40.9555C43.9469 41.2617 41.0539 41.5078 37.1219 41.6555C35.1312 41.7321 32.9875 41.7813 30.8492 41.8086C30.1 41.8196 29.4055 41.825 28.782 41.825H27.218L25.1508 41.8086C23.0125 41.7813 20.8742 41.7321 18.8781 41.6555C14.9461 41.5024 12.0477 41.2617 10.9047 40.9555C9.64687 40.6164 8.65156 39.6211 8.3125 38.3578C8.05547 37.3899 7.84766 35.9461 7.7 34.1852C7.58516 32.8344 7.51406 31.3797 7.47031 29.925C7.45391 29.4164 7.44844 28.9407 7.44297 28.5196C7.44297 28.3719 7.4375 28.2407 7.4375 28.1313V27.8688C7.4375 27.7539 7.4375 27.6282 7.44297 27.4805C7.44844 27.0539 7.45938 26.5836 7.47031 26.075C7.50859 24.6203 7.58516 23.1656 7.7 21.8149C7.84766 20.0539 8.05547 18.6102 8.3125 17.6422C8.65156 16.3789 9.64687 15.3781 10.9047 15.0446C12.0531 14.7383 14.9461 14.4922 18.8781 14.3446C20.8688 14.268 23.0125 14.2188 25.1508 14.1914C25.9 14.1805 26.5945 14.175 27.218 14.175H28.782L30.8492 14.1914C32.9875 14.2188 35.1258 14.268 37.1219 14.3446C41.0539 14.4977 43.9523 14.7383 45.0953 15.0446C46.3531 15.3836 47.3484 16.3789 47.6875 17.6422C47.9445 18.6102 48.1523 20.0539 48.3 21.8149C48.4148 23.1656 48.4859 24.6203 48.5297 26.075C48.5461 26.5836 48.5516 27.0594 48.557 27.4805C48.557 27.6282 48.5625 27.7594 48.5625 27.8688V28.1313ZM23.1328 35.3282L35.8203 27.9453L23.1328 20.6719V35.3282Z" fill="white"/>
</svg>
